<svg xmlns="http://www.w3.org/2000/svg" viewBox="0 0 512 512">
  <rect width="512" height="512" rx="96" fill="#f97316"/>
  <path fill="#fff" d="M176 96c-18 0-32 14-32 32v96c0 27 17 50 40 59v101c0 18 14 32 32 32s32-14 32-32V283c23-9 40-32 40-59v-96c0-18-14-32-32-32s-16 14-16 32v72c0 9-7 16-16 16s-16-7-16-16v-72c0-18-7-32-16-32s-16 14-16 32v72c0 9-7 16-16 16s-16-7-16-16v-72c0-18-14-32-32-32z" transform="translate(-8 0)"/>
  <path fill="#fff" d="M336 96c-31 0-56 43-56 96 0 40 14 74 34 88v101c0 18 14 32 32 32s32-14 32-32V128c0-18-6-32-42-32z" transform="translate(20 0)"/>
</svg>
